#!OML:ASF F:\twosubjects\two\wednesday\Session 1\rory1.ASF
:FULLY-SPECIFIED
:DEGREES
161
root 14.4917 18.2219 0.268804 -176.895 -0.280123 -178.684
lowerback 0.729213 -0.0920815 -0.211964
upperback -0.139712 -0.127289 0.931648
thorax -0.549027 -0.0647214 1.0737
lowerneck -10.6033 -1.09144 -1.46666
upperneck 17.6695 -0.346097 -1.91708
head 7.16195 -0.222941 -0.383717
rclavicle -8.91425e-016 -3.18055e-015
rhumerus -14.2148 -20.8798 -85.0738
rradius 22.5184
rwrist 1.86995
rhand -15.7576 29.66
rfingers 7.12502
rthumb 10.434 -0.0610435
lclavicle -8.91425e-016 -3.18055e-015
lhumerus -12.1145 13.9028 87.8742
lradius 21.7141
lwrist 4.92118
lhand -20.5177 18.5317
lfingers 7.12502
lthumb 5.84004 48.4312
rfemur -22.2519 14.3521 22.9043
rtibia 35.273
rfoot -10.5204 -5.08064
rtoes 18.7074
lfemur -24.8057 0.11469 -15.988
ltibia 58.7152
lfoot -11.3823 -0.87612
ltoes -19.7113
162
root 14.5056 18.2055 0.144839 -177.045 -0.277643 -178.367
lowerback 0.875304 0.110304 0.0593351
upperback -0.0401315 0.14351 0.957842
thorax -0.533882 0.0688426 0.944988
lowerneck -10.9507 -0.556932 -1.42685
upperneck 18.0109 -0.663319 -1.9859
head 7.33042 -0.813545 -0.500679
rclavicle -1.20203e-015 7.7526e-015
rhumerus -12.2301 -21.0337 -85.4577
rradius 22.4665
rwrist 2.02273
rhand -16.1256 31.6742
rfingers 7.12502
rthumb 10.079 1.93555
lclavicle -1.20203e-015 7.7526e-015
lhumerus -13.741 14.0268 87.776
lradius 21.8618
lwrist 5.36938
lhand -19.8731 21.3928
lfingers 7.12502
lthumb 6.46231 51.2743
rfemur -21.7324 14.3118 23.4864
rtibia 35.5371
rfoot -11.0571 -5.23276
rtoes 18.9127
lfemur -26.6437 -0.167823 -15.5133
ltibia 58.4474
lfoot -11.6942 -1.37339
ltoes -18.5892
163
root 14.517 18.186 0.0202204 -177.079 0.0648076 -178.135
lowerback 1.05686 0.361283 0.318757
upperback -0.0541589 0.502165 0.935121
thorax -0.653334 0.255892 0.770105
lowerneck -10.9213 -0.72589 -1.56908
upperneck 17.9417 -0.883258 -1.88662
head 7.30318 -0.915161 -0.464431
rclavicle -2.3233e-015 -5.91384e-015
rhumerus -10.4917 -20.8676 -85.8725
rradius 22.9013
rwrist 2.19016
rhand -17.1906 32.08
rfingers 7.12502
rthumb 9.05144 2.29423
lclavicle -2.3233e-015 -5.91384e-015
lhumerus -15.4967 14.3435 87.5013
lradius 21.7885
lwrist 5.51956
lhand -19.697 22.0469
lfingers 7.12502
lthumb 6.6323 51.923
rfemur -21.3304 14.3345 23.9182
rtibia 35.7355
rfoot -11.4752 -5.04939
rtoes 19.3979
lfemur -28.4073 -0.265478 -15.1608
ltibia 58.0022
lfoot -12.2714 -1.75365
ltoes -17.1879
164
root 14.5231 18.171 -0.10649 -177.143 0.154098 -177.912
lowerback 1.13901 0.540141 0.582309
upperback 0.0219533 0.746201 0.952188
thorax -0.621108 0.377883 0.635553
lowerneck -10.7096 -0.936194 -2.04874
upperneck 17.5507 -1.16186 -1.3745
head 7.14424 -1.01715 -0.238748
rclavicle -3.14794e-015 2.31087e-015
rhumerus -8.69256 -20.0088 -86.1995
rradius 23.6378
rwrist 1.60529
rhand -18.1745 31.9931
rfingers 7.12502
rthumb 8.10192 2.16842
lclavicle -3.14794e-015 2.31087e-015
lhumerus -17.1072 14.8559 87.2632
lradius 21.665
lwrist 5.60189
lhand -20.4852 20.9326
lfingers 7.12502
lthumb 5.87135 50.8313
rfemur -20.8613 14.4076 24.3203
rtibia 35.8834
rfoot -11.9197 -5.09993
rtoes 19.3917
lfemur -30.1294 -0.642597 -14.835
ltibia 57.3743
lfoot -12.9346 -2.00024
ltoes -18.9786
165
root 14.5293 18.1713 -0.230646 -177.207 0.0310239 -177.734
lowerback 1.20871 0.646982 0.747281
upperback 0.161165 0.893057 0.993009
thorax -0.516889 0.452264 0.582648
lowerneck -11.0117 -1.07569 -2.26719
upperneck 17.5711 -1.31972 -1.19527
head 7.20794 -1.08449 -0.160995
rclavicle 7.51033e-015 1.27968e-014
rhumerus -6.61566 -19.1148 -86.486
rradius 24.15
rwrist 0.626605
rhand -17.2726 32.1533
rfingers 7.12502
rthumb 8.97229 2.36404
lclavicle 7.51033e-015 1.27968e-014
lhumerus -18.4951 15.7922 87.0048
lradius 21.4039
lwrist 5.1084
lhand -21.2949 20.2492
lfingers 7.12502
lthumb 5.0896 50.1681
rfemur -20.3387 14.3759 24.6813
rtibia 35.9598
rfoot -12.4647 -5.20564
rtoes 19.3001
lfemur -31.8344 -1.3191 -14.5029
ltibia 56.5523
lfoot -13.3076 -1.96975
ltoes -19.8561
166
root 14.5363 18.174 -0.355389 -177.261 -0.0653692 -177.773
lowerback 1.3323 0.737135 0.704821
upperback 0.25461 0.983583 0.921635
thorax -0.490244 0.485056 0.531081
lowerneck -11.6493 -1.07807 -1.88502
upperneck 17.9304 -1.29504 -1.59438
head 7.43275 -1.08796 -0.359838
rclavicle 6.97765e-015 6.99474e-015
rhumerus -4.64441 -18.0667 -86.8657
rradius 24.5968
rwrist -0.499226
rhand -14.2208 32.1558
rfingers 7.12502
rthumb 11.9162 2.51492
lclavicle 6.97765e-015 6.99474e-015
lhumerus -20.0238 16.6848 86.4827
lradius 21.1388
lwrist 4.25419
lhand -21.8058 20.4173
lfingers 7.12502
lthumb 4.59631 50.3474
rfemur -19.7352 14.4259 24.8105
rtibia 35.8906
rfoot -12.8865 -5.24598
rtoes 20.1415
lfemur -33.4158 -2.04725 -14.3528
ltibia 55.5126
lfoot -13.5912 -1.87819
ltoes -18.0849
